<svg width="205" height="67" viewBox="0 0 205 67" fill="none" xmlns="http://www.w3.org/2000/svg">
<path d="M19.8555 22.1507C22.056 22.1507 24.0157 22.5805 25.7348 23.44C27.4883 24.2995 28.8636 25.6232 29.8607 27.4111C30.8577 29.1646 31.3563 31.4338 31.3563 34.2187V50H24.9097V35.0439C24.9097 32.6028 24.3252 30.7805 23.1562 29.5772C22.0216 28.3738 20.4228 27.7721 18.3599 27.7721C16.8471 27.7721 15.5062 28.0816 14.3372 28.7004C13.1683 29.3193 12.2571 30.2476 11.6039 31.4854C10.985 32.6887 10.6756 34.2187 10.6756 36.0753V50H4.22897V22.4601H10.3661V29.8866L9.28311 27.6174C10.2458 25.8639 11.6383 24.523 13.4605 23.5947C15.3171 22.632 17.4488 22.1507 19.8555 22.1507ZM51.962 50.361C49.1427 50.361 46.6328 49.7593 44.4324 48.556C42.232 47.3182 40.4957 45.6335 39.2235 43.5018C37.9514 41.3701 37.3154 38.9462 37.3154 36.2301C37.3154 33.4795 37.9514 31.0556 39.2235 28.9583C40.4957 26.8266 42.232 25.1591 44.4324 23.9557C46.6328 22.7524 49.1427 22.1507 51.962 22.1507C54.8157 22.1507 57.3428 22.7524 59.5432 23.9557C61.7781 25.1591 63.5143 26.8094 64.7521 28.9067C66.0242 31.004 66.6603 33.4451 66.6603 36.2301C66.6603 38.9462 66.0242 41.3701 64.7521 43.5018C63.5143 45.6335 61.7781 47.3182 59.5432 48.556C57.3428 49.7593 54.8157 50.361 51.962 50.361ZM51.962 44.8427C53.5436 44.8427 54.9533 44.4989 56.191 43.8113C57.4287 43.1236 58.3914 42.1266 59.0791 40.82C59.8011 39.5135 60.1621 37.9835 60.1621 36.2301C60.1621 34.4422 59.8011 32.9122 59.0791 31.6401C58.3914 30.3336 57.4287 29.3365 56.191 28.6489C54.9533 27.9612 53.5608 27.6174 52.0136 27.6174C50.432 27.6174 49.0224 27.9612 47.7846 28.6489C46.5813 29.3365 45.6186 30.3336 44.8966 31.6401C44.1745 32.9122 43.8135 34.4422 43.8135 36.2301C43.8135 37.9835 44.1745 39.5135 44.8966 40.82C45.6186 42.1266 46.5813 43.1236 47.7846 43.8113C49.0224 44.4989 50.4148 44.8427 51.962 44.8427ZM85.2023 50.361C82.383 50.361 79.8731 49.7593 77.6727 48.556C75.4722 47.3182 73.736 45.6335 72.4638 43.5018C71.1917 41.3701 70.5556 38.9462 70.5556 36.2301C70.5556 33.4795 71.1917 31.0556 72.4638 28.9583C73.736 26.8266 75.4722 25.1591 77.6727 23.9557C79.8731 22.7524 82.383 22.1507 85.2023 22.1507C88.056 22.1507 90.5831 22.7524 92.7835 23.9557C95.0183 25.1591 96.7546 26.8094 97.9924 28.9067C99.2645 31.004 99.9006 33.4451 99.9006 36.2301C99.9006 38.9462 99.2645 41.3701 97.9924 43.5018C96.7546 45.6335 95.0183 47.3182 92.7835 48.556C90.5831 49.7593 88.056 50.361 85.2023 50.361ZM85.2023 44.8427C86.7839 44.8427 88.1935 44.4989 89.4313 43.8113C90.669 43.1236 91.6317 42.1266 92.3194 40.82C93.0414 39.5135 93.4024 37.9835 93.4024 36.2301C93.4024 34.4422 93.0414 32.9122 92.3194 31.6401C91.6317 30.3336 90.669 29.3365 89.4313 28.6489C88.1935 27.9612 86.8011 27.6174 85.2539 27.6174C83.6723 27.6174 82.2627 27.9612 81.0249 28.6489C79.8216 29.3365 78.8589 30.3336 78.1368 31.6401C77.4148 32.9122 77.0538 34.4422 77.0538 36.2301C77.0538 37.9835 77.4148 39.5135 78.1368 40.82C78.8589 42.1266 79.8216 43.1236 81.0249 43.8113C82.2627 44.4989 83.6551 44.8427 85.2023 44.8427ZM118.546 60.3661C116.001 60.3661 113.509 60.0223 111.068 59.3347C108.661 58.6814 106.684 57.7187 105.137 56.4466L108.025 51.5988C109.228 52.5958 110.741 53.3866 112.563 53.9711C114.42 54.59 116.294 54.8994 118.185 54.8994C121.21 54.8994 123.428 54.1946 124.838 52.7849C126.247 51.4097 126.952 49.3296 126.952 46.5446V41.6452L127.468 35.4049L127.262 29.1646V22.4601H133.399V45.8226C133.399 50.808 132.127 54.4696 129.582 56.8076C127.038 59.18 123.359 60.3661 118.546 60.3661ZM117.721 48.7623C115.108 48.7623 112.735 48.2121 110.604 47.1119C108.506 45.9773 106.839 44.4129 105.601 42.4188C104.398 40.4246 103.796 38.0867 103.796 35.4049C103.796 32.7575 104.398 30.4367 105.601 28.4426C106.839 26.4484 108.506 24.9012 110.604 23.801C112.735 22.7008 115.108 22.1507 117.721 22.1507C120.059 22.1507 122.156 22.6148 124.012 23.5431C125.869 24.4715 127.348 25.9155 128.448 27.8753C129.582 29.835 130.15 32.3449 130.15 35.4049C130.15 38.4649 129.582 40.9919 128.448 42.9861C127.348 44.9459 125.869 46.4071 124.012 47.3698C122.156 48.2981 120.059 48.7623 117.721 48.7623ZM118.7 43.2955C120.316 43.2955 121.76 42.9689 123.033 42.3157C124.305 41.628 125.285 40.6997 125.972 39.5307C126.694 38.3274 127.055 36.9521 127.055 35.4049C127.055 33.8577 126.694 32.4996 125.972 31.3306C125.285 30.1273 124.305 29.2162 123.033 28.5973C121.76 27.944 120.316 27.6174 118.7 27.6174C117.085 27.6174 115.623 27.944 114.317 28.5973C113.045 29.2162 112.048 30.1273 111.326 31.3306C110.638 32.4996 110.294 33.8577 110.294 35.4049C110.294 36.9521 110.638 38.3274 111.326 39.5307C112.048 40.6997 113.045 41.628 114.317 42.3157C115.623 42.9689 117.085 43.2955 118.7 43.2955ZM141.874 50V11.733H148.321V50H141.874ZM156.782 50V22.4601H163.228V50H156.782ZM160.031 17.9217C158.827 17.9217 157.83 17.5435 157.04 16.7871C156.283 16.0307 155.905 15.1196 155.905 14.0537C155.905 12.9535 156.283 12.0424 157.04 11.3204C157.83 10.564 158.827 10.1858 160.031 10.1858C161.234 10.1858 162.214 10.5468 162.971 11.2688C163.761 11.9565 164.157 12.8332 164.157 13.899C164.157 15.0336 163.778 15.9963 163.022 16.7871C162.266 17.5435 161.269 17.9217 160.031 17.9217ZM188.657 50V44.4301L188.296 43.244V33.4967C188.296 31.6057 187.729 30.1445 186.594 29.113C185.459 28.0472 183.74 27.5143 181.437 27.5143C179.89 27.5143 178.36 27.7549 176.847 28.2363C175.368 28.7176 174.113 29.3881 173.082 30.2476L170.555 25.5545C172.033 24.4199 173.787 23.5775 175.815 23.0274C177.878 22.4429 180.01 22.1507 182.21 22.1507C186.199 22.1507 189.276 23.1134 191.442 25.0388C193.642 26.9298 194.743 29.8694 194.743 33.8577V50H188.657ZM179.993 50.361C177.93 50.361 176.125 50.0172 174.578 49.3296C173.03 48.6075 171.827 47.6277 170.968 46.3899C170.142 45.1178 169.73 43.6909 169.73 42.1094C169.73 40.5622 170.091 39.1697 170.813 37.932C171.569 36.6942 172.79 35.7143 174.474 34.9923C176.159 34.2703 178.394 33.9093 181.179 33.9093H189.173V38.1898H181.643C179.443 38.1898 177.964 38.5508 177.208 39.2729C176.451 39.9605 176.073 40.82 176.073 41.8515C176.073 43.0205 176.537 43.9488 177.466 44.6364C178.394 45.3241 179.683 45.6679 181.334 45.6679C182.915 45.6679 184.325 45.3069 185.563 44.5849C186.835 43.8628 187.746 42.797 188.296 41.3873L189.379 45.2553C188.76 46.8712 187.643 48.1262 186.027 49.0201C184.445 49.914 182.434 50.361 179.993 50.361Z" fill="#393939"/>
</svg>
