<svg width="191" height="51" viewBox="0 0 191 51" fill="none" xmlns="http://www.w3.org/2000/svg">
<path d="M15.8555 12.1507C18.056 12.1507 20.0157 12.5805 21.7348 13.44C23.4883 14.2995 24.8636 15.6232 25.8607 17.4111C26.8577 19.1646 27.3563 21.4338 27.3563 24.2187V40H20.9097V25.0439C20.9097 22.6028 20.3252 20.7805 19.1562 19.5772C18.0216 18.3738 16.4228 17.7721 14.3599 17.7721C12.8471 17.7721 11.5062 18.0816 10.3372 18.7004C9.16826 19.3193 8.25714 20.2476 7.60388 21.4854C6.98501 22.6887 6.67557 24.2187 6.67557 26.0753V40H0.228971V12.4601H6.36614V19.8866L5.28311 17.6174C6.2458 15.8639 7.63827 14.523 9.46051 13.5947C11.3171 12.632 13.4488 12.1507 15.8555 12.1507ZM47.962 40.361C45.1427 40.361 42.6328 39.7593 40.4324 38.556C38.232 37.3182 36.4957 35.6335 35.2235 33.5018C33.9514 31.3701 33.3154 28.9462 33.3154 26.2301C33.3154 23.4795 33.9514 21.0556 35.2235 18.9583C36.4957 16.8266 38.232 15.1591 40.4324 13.9557C42.6328 12.7524 45.1427 12.1507 47.962 12.1507C50.8157 12.1507 53.3428 12.7524 55.5432 13.9557C57.7781 15.1591 59.5143 16.8094 60.7521 18.9067C62.0242 21.004 62.6603 23.4451 62.6603 26.2301C62.6603 28.9462 62.0242 31.3701 60.7521 33.5018C59.5143 35.6335 57.7781 37.3182 55.5432 38.556C53.3428 39.7593 50.8157 40.361 47.962 40.361ZM47.962 34.8427C49.5436 34.8427 50.9533 34.4989 52.191 33.8113C53.4287 33.1236 54.3914 32.1266 55.0791 30.82C55.8011 29.5135 56.1621 27.9835 56.1621 26.2301C56.1621 24.4422 55.8011 22.9122 55.0791 21.6401C54.3914 20.3336 53.4287 19.3365 52.191 18.6489C50.9533 17.9612 49.5608 17.6174 48.0136 17.6174C46.432 17.6174 45.0224 17.9612 43.7846 18.6489C42.5813 19.3365 41.6186 20.3336 40.8966 21.6401C40.1745 22.9122 39.8135 24.4422 39.8135 26.2301C39.8135 27.9835 40.1745 29.5135 40.8966 30.82C41.6186 32.1266 42.5813 33.1236 43.7846 33.8113C45.0224 34.4989 46.4148 34.8427 47.962 34.8427ZM81.2023 40.361C78.383 40.361 75.8731 39.7593 73.6727 38.556C71.4722 37.3182 69.736 35.6335 68.4638 33.5018C67.1917 31.3701 66.5556 28.9462 66.5556 26.2301C66.5556 23.4795 67.1917 21.0556 68.4638 18.9583C69.736 16.8266 71.4722 15.1591 73.6727 13.9557C75.8731 12.7524 78.383 12.1507 81.2023 12.1507C84.056 12.1507 86.5831 12.7524 88.7835 13.9557C91.0183 15.1591 92.7546 16.8094 93.9924 18.9067C95.2645 21.004 95.9006 23.4451 95.9006 26.2301C95.9006 28.9462 95.2645 31.3701 93.9924 33.5018C92.7546 35.6335 91.0183 37.3182 88.7835 38.556C86.5831 39.7593 84.056 40.361 81.2023 40.361ZM81.2023 34.8427C82.7839 34.8427 84.1935 34.4989 85.4313 33.8113C86.669 33.1236 87.6317 32.1266 88.3194 30.82C89.0414 29.5135 89.4024 27.9835 89.4024 26.2301C89.4024 24.4422 89.0414 22.9122 88.3194 21.6401C87.6317 20.3336 86.669 19.3365 85.4313 18.6489C84.1935 17.9612 82.8011 17.6174 81.2539 17.6174C79.6723 17.6174 78.2627 17.9612 77.0249 18.6489C75.8216 19.3365 74.8589 20.3336 74.1368 21.6401C73.4148 22.9122 73.0538 24.4422 73.0538 26.2301C73.0538 27.9835 73.4148 29.5135 74.1368 30.82C74.8589 32.1266 75.8216 33.1236 77.0249 33.8113C78.2627 34.4989 79.6551 34.8427 81.2023 34.8427ZM114.546 50.3661C112.001 50.3661 109.509 50.0223 107.068 49.3347C104.661 48.6814 102.684 47.7187 101.137 46.4466L104.025 41.5988C105.228 42.5958 106.741 43.3866 108.563 43.9711C110.42 44.59 112.294 44.8994 114.185 44.8994C117.21 44.8994 119.428 44.1946 120.838 42.7849C122.247 41.4097 122.952 39.3296 122.952 36.5446V31.6452L123.468 25.4049L123.262 19.1646V12.4601H129.399V35.8226C129.399 40.808 128.127 44.4696 125.582 46.8076C123.038 49.18 119.359 50.3661 114.546 50.3661ZM113.721 38.7623C111.108 38.7623 108.735 38.2121 106.604 37.1119C104.506 35.9773 102.839 34.4129 101.601 32.4188C100.398 30.4246 99.7959 28.0867 99.7959 25.4049C99.7959 22.7575 100.398 20.4367 101.601 18.4426C102.839 16.4484 104.506 14.9012 106.604 13.801C108.735 12.7008 111.108 12.1507 113.721 12.1507C116.059 12.1507 118.156 12.6148 120.012 13.5431C121.869 14.4715 123.348 15.9155 124.448 17.8753C125.582 19.835 126.15 22.3449 126.15 25.4049C126.15 28.4649 125.582 30.9919 124.448 32.9861C123.348 34.9459 121.869 36.4071 120.012 37.3698C118.156 38.2981 116.059 38.7623 113.721 38.7623ZM114.7 33.2955C116.316 33.2955 117.76 32.9689 119.033 32.3157C120.305 31.628 121.285 30.6997 121.972 29.5307C122.694 28.3274 123.055 26.9521 123.055 25.4049C123.055 23.8577 122.694 22.4996 121.972 21.3306C121.285 20.1273 120.305 19.2162 119.033 18.5973C117.76 17.944 116.316 17.6174 114.7 17.6174C113.085 17.6174 111.623 17.944 110.317 18.5973C109.045 19.2162 108.048 20.1273 107.326 21.3306C106.638 22.4996 106.294 23.8577 106.294 25.4049C106.294 26.9521 106.638 28.3274 107.326 29.5307C108.048 30.6997 109.045 31.628 110.317 32.3157C111.623 32.9689 113.085 33.2955 114.7 33.2955ZM137.874 40V1.73297H144.321V40H137.874ZM152.782 40V12.4601H159.228V40H152.782ZM156.031 7.92171C154.827 7.92171 153.83 7.54351 153.04 6.7871C152.283 6.0307 151.905 5.11959 151.905 4.05375C151.905 2.95353 152.283 2.04241 153.04 1.32039C153.83 0.563986 154.827 0.185786 156.031 0.185786C157.234 0.185786 158.214 0.546795 158.971 1.26881C159.761 1.95645 160.157 2.83319 160.157 3.89903C160.157 5.03363 159.778 5.99632 159.022 6.7871C158.266 7.54351 157.269 7.92171 156.031 7.92171ZM184.657 40V34.4301L184.296 33.244V23.4967C184.296 21.6057 183.729 20.1445 182.594 19.113C181.459 18.0472 179.74 17.5143 177.437 17.5143C175.89 17.5143 174.36 17.7549 172.847 18.2363C171.368 18.7176 170.113 19.3881 169.082 20.2476L166.555 15.5545C168.033 14.4199 169.787 13.5775 171.815 13.0274C173.878 12.4429 176.01 12.1507 178.21 12.1507C182.199 12.1507 185.276 13.1134 187.442 15.0388C189.642 16.9298 190.743 19.8694 190.743 23.8577V40H184.657ZM175.993 40.361C173.93 40.361 172.125 40.0172 170.578 39.3296C169.03 38.6075 167.827 37.6277 166.968 36.3899C166.142 35.1178 165.73 33.6909 165.73 32.1094C165.73 30.5622 166.091 29.1697 166.813 27.932C167.569 26.6942 168.79 25.7143 170.474 24.9923C172.159 24.2703 174.394 23.9093 177.179 23.9093H185.173V28.1898H177.643C175.443 28.1898 173.964 28.5508 173.208 29.2729C172.451 29.9605 172.073 30.82 172.073 31.8515C172.073 33.0205 172.537 33.9488 173.466 34.6364C174.394 35.3241 175.683 35.6679 177.334 35.6679C178.915 35.6679 180.325 35.3069 181.563 34.5849C182.835 33.8628 183.746 32.797 184.296 31.3873L185.379 35.2553C184.76 36.8712 183.643 38.1262 182.027 39.0201C180.445 39.914 178.434 40.361 175.993 40.361Z" fill="#393939"/>
</svg>
