<svg width="414" height="158" viewBox="0 0 414 158" fill="none" xmlns="http://www.w3.org/2000/svg">
<rect width="414" height="158" rx="33" fill="#F8F8F8"/>
<path d="M129.724 95.336C127.388 95.336 125.276 94.936 123.388 94.136C121.532 93.336 120.06 92.184 118.972 90.68C117.884 89.176 117.324 87.4 117.292 85.352H124.492C124.588 86.728 125.068 87.816 125.932 88.616C126.828 89.416 128.044 89.816 129.58 89.816C131.148 89.816 132.38 89.448 133.276 88.712C134.172 87.944 134.62 86.952 134.62 85.736C134.62 84.744 134.316 83.928 133.708 83.288C133.1 82.648 132.332 82.152 131.404 81.8C130.508 81.416 129.26 81 127.66 80.552C125.484 79.912 123.708 79.288 122.332 78.68C120.988 78.04 119.82 77.096 118.828 75.848C117.868 74.568 117.388 72.872 117.388 70.76C117.388 68.776 117.884 67.048 118.876 65.576C119.868 64.104 121.26 62.984 123.052 62.216C124.844 61.416 126.892 61.016 129.196 61.016C132.652 61.016 135.452 61.864 137.596 63.56C139.772 65.224 140.972 67.56 141.196 70.568H133.804C133.74 69.416 133.244 68.472 132.316 67.736C131.42 66.968 130.22 66.584 128.716 66.584C127.404 66.584 126.348 66.92 125.548 67.592C124.78 68.264 124.396 69.24 124.396 70.52C124.396 71.416 124.684 72.168 125.26 72.776C125.868 73.352 126.604 73.832 127.468 74.216C128.364 74.568 129.612 74.984 131.212 75.464C133.388 76.104 135.164 76.744 136.54 77.384C137.916 78.024 139.1 78.984 140.092 80.264C141.084 81.544 141.58 83.224 141.58 85.304C141.58 87.096 141.116 88.76 140.188 90.296C139.26 91.832 137.9 93.064 136.108 93.992C134.316 94.888 132.188 95.336 129.724 95.336ZM150.814 65.24C149.63 65.24 148.638 64.872 147.838 64.136C147.07 63.368 146.686 62.424 146.686 61.304C146.686 60.184 147.07 59.256 147.838 58.52C148.638 57.752 149.63 57.368 150.814 57.368C151.998 57.368 152.974 57.752 153.742 58.52C154.542 59.256 154.942 60.184 154.942 61.304C154.942 62.424 154.542 63.368 153.742 64.136C152.974 64.872 151.998 65.24 150.814 65.24ZM154.126 68.408V95H147.406V68.408H154.126ZM171.181 67.976C173.165 67.976 174.909 68.376 176.413 69.176C177.917 69.944 179.101 70.952 179.965 72.2V68.408H186.733V95.192C186.733 97.656 186.237 99.848 185.245 101.768C184.253 103.72 182.765 105.256 180.781 106.376C178.797 107.528 176.397 108.104 173.581 108.104C169.805 108.104 166.701 107.224 164.269 105.464C161.869 103.704 160.509 101.304 160.189 98.264H166.861C167.213 99.48 167.965 100.44 169.117 101.144C170.301 101.88 171.725 102.248 173.389 102.248C175.341 102.248 176.925 101.656 178.141 100.472C179.357 99.32 179.965 97.56 179.965 95.192V91.064C179.101 92.312 177.901 93.352 176.365 94.184C174.861 95.016 173.133 95.432 171.181 95.432C168.941 95.432 166.893 94.856 165.037 93.704C163.181 92.552 161.709 90.936 160.621 88.856C159.565 86.744 159.037 84.328 159.037 81.608C159.037 78.92 159.565 76.536 160.621 74.456C161.709 72.376 163.165 70.776 164.989 69.656C166.845 68.536 168.909 67.976 171.181 67.976ZM179.965 81.704C179.965 80.072 179.645 78.68 179.005 77.528C178.365 76.344 177.501 75.448 176.413 74.84C175.325 74.2 174.157 73.88 172.909 73.88C171.661 73.88 170.509 74.184 169.453 74.792C168.397 75.4 167.533 76.296 166.861 77.48C166.221 78.632 165.901 80.008 165.901 81.608C165.901 83.208 166.221 84.616 166.861 85.832C167.533 87.016 168.397 87.928 169.453 88.568C170.541 89.208 171.693 89.528 172.909 89.528C174.157 89.528 175.325 89.224 176.413 88.616C177.501 87.976 178.365 87.08 179.005 85.928C179.645 84.744 179.965 83.336 179.965 81.704ZM208.032 68.024C211.2 68.024 213.76 69.032 215.712 71.048C217.664 73.032 218.64 75.816 218.64 79.4V95H211.92V80.312C211.92 78.2 211.392 76.584 210.336 75.464C209.28 74.312 207.84 73.736 206.016 73.736C204.16 73.736 202.688 74.312 201.6 75.464C200.544 76.584 200.016 78.2 200.016 80.312V95H193.296V68.408H200.016V71.72C200.912 70.568 202.048 69.672 203.424 69.032C204.832 68.36 206.368 68.024 208.032 68.024ZM243.092 61.496V82.232C243.092 84.504 243.684 86.248 244.868 87.464C246.052 88.648 247.716 89.24 249.86 89.24C252.036 89.24 253.716 88.648 254.9 87.464C256.084 86.248 256.676 84.504 256.676 82.232V61.496H263.444V82.184C263.444 85.032 262.82 87.448 261.572 89.432C260.356 91.384 258.708 92.856 256.628 93.848C254.58 94.84 252.292 95.336 249.764 95.336C247.268 95.336 244.996 94.84 242.948 93.848C240.932 92.856 239.332 91.384 238.148 89.432C236.964 87.448 236.372 85.032 236.372 82.184V61.496H243.092ZM276.657 72.248C277.521 71.032 278.705 70.024 280.209 69.224C281.745 68.392 283.489 67.976 285.441 67.976C287.713 67.976 289.761 68.536 291.585 69.656C293.441 70.776 294.897 72.376 295.953 74.456C297.041 76.504 297.585 78.888 297.585 81.608C297.585 84.328 297.041 86.744 295.953 88.856C294.897 90.936 293.441 92.552 291.585 93.704C289.761 94.856 287.713 95.432 285.441 95.432C283.489 95.432 281.761 95.032 280.257 94.232C278.785 93.432 277.585 92.424 276.657 91.208V107.672H269.937V68.408H276.657V72.248ZM290.721 81.608C290.721 80.008 290.385 78.632 289.713 77.48C289.073 76.296 288.209 75.4 287.121 74.792C286.065 74.184 284.913 73.88 283.665 73.88C282.449 73.88 281.297 74.2 280.209 74.84C279.153 75.448 278.289 76.344 277.617 77.528C276.977 78.712 276.657 80.104 276.657 81.704C276.657 83.304 276.977 84.696 277.617 85.88C278.289 87.064 279.153 87.976 280.209 88.616C281.297 89.224 282.449 89.528 283.665 89.528C284.913 89.528 286.065 89.208 287.121 88.568C288.209 87.928 289.073 87.016 289.713 85.832C290.385 84.648 290.721 83.24 290.721 81.608Z" fill="#343434"/>
</svg>
