<svg width="240" height="92" viewBox="0 0 240 92" fill="none" xmlns="http://www.w3.org/2000/svg">
<rect x="0.452881" y="0.578613" width="239.547" height="91.4214" rx="19.0943" fill="#292929"/>
<path d="M75.5132 56.1944C74.1615 56.1944 72.9395 55.963 71.847 55.5001C70.7731 55.0372 69.9214 54.3706 69.2919 53.5004C68.6623 52.6301 68.3383 51.6025 68.3198 50.4175H72.4858C72.5414 51.2137 72.8191 51.8432 73.319 52.3061C73.8375 52.769 74.5411 53.0005 75.4298 53.0005C76.3371 53.0005 77.05 52.7875 77.5684 52.3617C78.0868 51.9173 78.3461 51.3433 78.3461 50.6397C78.3461 50.0657 78.1702 49.5936 77.8184 49.2232C77.4666 48.8529 77.0222 48.5659 76.4852 48.3623C75.9668 48.1401 75.2447 47.8994 74.3189 47.6401C73.0598 47.2698 72.0322 46.9088 71.236 46.557C70.4584 46.1867 69.7825 45.6405 69.2086 44.9183C68.6531 44.1777 68.3754 43.1964 68.3754 41.9743C68.3754 40.8264 68.6623 39.8265 69.2363 38.9748C69.8103 38.1231 70.6158 37.475 71.6526 37.0306C72.6895 36.5677 73.8745 36.3363 75.2077 36.3363C77.2074 36.3363 78.8275 36.827 80.068 37.8083C81.3271 38.7711 82.0214 40.1228 82.1511 41.8632H77.8739C77.8369 41.1967 77.5499 40.6505 77.0129 40.2246C76.4945 39.7802 75.8002 39.558 74.9299 39.558C74.1708 39.558 73.5598 39.7525 73.0969 40.1413C72.6525 40.5301 72.4303 41.0948 72.4303 41.8355C72.4303 42.3539 72.5969 42.789 72.9302 43.1408C73.282 43.4741 73.7079 43.7518 74.2078 43.974C74.7262 44.1777 75.4484 44.4184 76.3741 44.6962C77.6332 45.0665 78.6608 45.4368 79.457 45.8071C80.2532 46.1774 80.9383 46.7329 81.5123 47.4735C82.0862 48.2141 82.3732 49.1862 82.3732 50.3897C82.3732 51.4266 82.1048 52.3894 81.5678 53.2782C81.0308 54.1669 80.2439 54.8798 79.2071 55.4168C78.1702 55.9352 76.9389 56.1944 75.5132 56.1944ZM87.7162 38.7804C87.0311 38.7804 86.4571 38.5674 85.9942 38.1416C85.5498 37.6972 85.3277 37.151 85.3277 36.5029C85.3277 35.8549 85.5498 35.3179 85.9942 34.8921C86.4571 34.4477 87.0311 34.2255 87.7162 34.2255C88.4013 34.2255 88.966 34.4477 89.4104 34.8921C89.8733 35.3179 90.1047 35.8549 90.1047 36.5029C90.1047 37.151 89.8733 37.6972 89.4104 38.1416C88.966 38.5674 88.4013 38.7804 87.7162 38.7804ZM89.6326 40.6134V56H85.7443V40.6134H89.6326ZM99.5011 40.3635C100.649 40.3635 101.658 40.5949 102.528 41.0578C103.399 41.5022 104.084 42.0854 104.584 42.8075V40.6134H108.5V56.1111C108.5 57.5368 108.213 58.8051 107.639 59.9161C107.065 61.0455 106.204 61.9343 105.056 62.5823C103.908 63.2489 102.519 63.5822 100.89 63.5822C98.7049 63.5822 96.9089 63.073 95.5017 62.0546C94.113 61.0363 93.3261 59.6476 93.1409 57.8886H97.0015C97.2051 58.5922 97.6402 59.1477 98.3068 59.555C98.9919 59.9809 99.8158 60.1938 100.779 60.1938C101.908 60.1938 102.825 59.8513 103.528 59.1662C104.232 58.4996 104.584 57.4813 104.584 56.1111V53.7226C104.084 54.4447 103.389 55.0464 102.501 55.5278C101.63 56.0093 100.631 56.25 99.5011 56.25C98.205 56.25 97.02 55.9167 95.9461 55.2501C94.8721 54.5835 94.0204 53.6485 93.3909 52.445C92.7799 51.2229 92.4744 49.825 92.4744 48.2512C92.4744 46.6958 92.7799 45.3164 93.3909 44.1129C94.0204 42.9094 94.8629 41.9836 95.9183 41.3355C96.9922 40.6875 98.1865 40.3635 99.5011 40.3635ZM104.584 48.3067C104.584 47.3624 104.398 46.557 104.028 45.8904C103.658 45.2053 103.158 44.6869 102.528 44.3351C101.899 43.9648 101.223 43.7796 100.501 43.7796C99.7788 43.7796 99.1122 43.9555 98.5012 44.3073C97.8902 44.6591 97.3903 45.1776 97.0015 45.8626C96.6311 46.5292 96.446 47.3254 96.446 48.2512C96.446 49.177 96.6311 49.9916 97.0015 50.6952C97.3903 51.3803 97.8902 51.908 98.5012 52.2783C99.1308 52.6487 99.7973 52.8338 100.501 52.8338C101.223 52.8338 101.899 52.6579 102.528 52.3061C103.158 51.9358 103.658 51.4174 104.028 50.7508C104.398 50.0657 104.584 49.251 104.584 48.3067ZM120.824 40.3912C122.657 40.3912 124.138 40.9745 125.268 42.141C126.397 43.289 126.962 44.8998 126.962 46.9736V56H123.073V47.5013C123.073 46.2792 122.768 45.3442 122.157 44.6962C121.546 44.0296 120.713 43.6963 119.657 43.6963C118.583 43.6963 117.732 44.0296 117.102 44.6962C116.491 45.3442 116.186 46.2792 116.186 47.5013V56H112.297V40.6134H116.186V42.5298C116.704 41.8632 117.361 41.3448 118.158 40.9745C118.972 40.5857 119.861 40.3912 120.824 40.3912ZM141.11 36.614V48.6122C141.11 49.9268 141.453 50.9359 142.138 51.6395C142.823 52.3246 143.786 52.6672 145.026 52.6672C146.285 52.6672 147.257 52.3246 147.942 51.6395C148.627 50.9359 148.97 49.9268 148.97 48.6122V36.614H152.886V48.5845C152.886 50.2324 152.525 51.6303 151.803 52.7783C151.099 53.9077 150.146 54.7594 148.942 55.3334C147.757 55.9074 146.433 56.1944 144.971 56.1944C143.526 56.1944 142.212 55.9074 141.027 55.3334C139.86 54.7594 138.934 53.9077 138.249 52.7783C137.564 51.6303 137.222 50.2324 137.222 48.5845V36.614H141.11ZM160.531 42.8353C161.031 42.1317 161.716 41.5485 162.586 41.0856C163.475 40.6042 164.484 40.3635 165.614 40.3635C166.928 40.3635 168.113 40.6875 169.169 41.3355C170.243 41.9836 171.085 42.9094 171.696 44.1129C172.326 45.2979 172.64 46.6773 172.64 48.2512C172.64 49.825 172.326 51.2229 171.696 52.445C171.085 53.6485 170.243 54.5835 169.169 55.2501C168.113 55.9167 166.928 56.25 165.614 56.25C164.484 56.25 163.484 56.0185 162.614 55.5556C161.762 55.0927 161.068 54.5095 160.531 53.8059V63.3322H156.643V40.6134H160.531V42.8353ZM168.669 48.2512C168.669 47.3254 168.474 46.5292 168.086 45.8626C167.715 45.1776 167.215 44.6591 166.586 44.3073C165.975 43.9555 165.308 43.7796 164.586 43.7796C163.882 43.7796 163.216 43.9648 162.586 44.3351C161.975 44.6869 161.475 45.2053 161.087 45.8904C160.716 46.5755 160.531 47.3809 160.531 48.3067C160.531 49.2325 160.716 50.0379 161.087 50.723C161.475 51.4081 161.975 51.9358 162.586 52.3061C163.216 52.6579 163.882 52.8338 164.586 52.8338C165.308 52.8338 165.975 52.6487 166.586 52.2783C167.215 51.908 167.715 51.3803 168.086 50.6952C168.474 50.0102 168.669 49.1955 168.669 48.2512Z" fill="white"/>
</svg>
